<svg xmlns="http://www.w3.org/2000/svg" xmlns:xlink="http://www.w3.org/1999/xlink" width="500" zoomAndPan="magnify" viewBox="0 0 375 374.999991" height="500" preserveAspectRatio="xMidYMid meet" version="1.0"><defs><g/><clipPath id="97b5d95957"><path d="M 50 58 L 318 58 L 318 325 L 50 325 Z M 50 58 " clip-rule="nonzero"/></clipPath><clipPath id="32f7e41450"><path d="M 188.445312 1.929688 L 334.148438 154.199219 L 140.148438 339.824219 L -5.550781 187.554688 Z M 188.445312 1.929688 " clip-rule="nonzero"/></clipPath><clipPath id="7e5cbb364a"><path d="M 188.445312 1.929688 L 374.074219 195.925781 L 180.074219 381.550781 L -5.550781 187.554688 Z M 188.445312 1.929688 " clip-rule="nonzero"/></clipPath><clipPath id="8a62f89621"><path d="M 254.625 233.585938 L 268.125 233.585938 L 268.125 247.085938 L 254.625 247.085938 Z M 254.625 233.585938 " clip-rule="nonzero"/></clipPath></defs><g clip-path="url(#97b5d95957)"><g clip-path="url(#32f7e41450)"><g clip-path="url(#7e5cbb364a)"><path fill="#000000" d="M 245.46875 307.484375 C 234.742188 313.039062 223.203125 316.882812 211.429688 319.222656 C 201.792969 321.074219 192.011719 322.054688 182.21875 322.007812 C 180.914062 322.039062 179.613281 321.921875 178.3125 321.875 C 177.011719 321.804688 175.707031 321.777344 174.40625 321.675781 L 170.515625 321.320312 L 168.566406 321.140625 L 166.632812 320.878906 L 162.757812 320.359375 C 161.46875 320.15625 160.191406 319.902344 158.90625 319.679688 C 156.328125 319.28125 153.800781 318.652344 151.246094 318.105469 C 150.878906 318.027344 150.496094 317.941406 150.09375 317.855469 C 149.699219 317.746094 149.289062 317.632812 148.859375 317.519531 C 148.003906 317.28125 147.082031 317.027344 146.105469 316.757812 C 144.128906 316.261719 141.984375 315.492188 139.613281 314.710938 C 139.027344 314.507812 138.417969 314.324219 137.808594 314.09375 C 137.203125 313.859375 136.589844 313.617188 135.960938 313.371094 C 134.707031 312.878906 133.40625 312.367188 132.0625 311.839844 C 129.453125 310.625 126.609375 309.476562 123.792969 307.945312 C 112.3125 302.265625 99.96875 293.269531 89.496094 282.414062 C 79.113281 271.472656 70.671875 258.746094 65.5 247.027344 C 64.097656 244.144531 63.074219 241.253906 61.976562 238.589844 C 61.507812 237.226562 61.054688 235.90625 60.617188 234.632812 C 60.402344 233.992188 60.1875 233.367188 59.976562 232.753906 C 59.773438 232.136719 59.617188 231.519531 59.441406 230.921875 C 58.761719 228.523438 58.089844 226.34375 57.679688 224.347656 C 57.453125 223.359375 57.242188 222.425781 57.046875 221.5625 C 56.945312 221.128906 56.851562 220.714844 56.761719 220.3125 C 56.691406 219.910156 56.625 219.519531 56.5625 219.152344 C 54.777344 209.519531 53.859375 199.738281 53.972656 189.945312 C 54.199219 179.515625 55.703125 169.144531 58.097656 158.980469 C 60.953125 147.316406 65.304688 135.960938 71.324219 125.488281 C 77.222656 114.941406 84.847656 105.378906 93.535156 96.921875 C 102.367188 88.617188 112.257812 81.417969 123.054688 75.996094 C 133.78125 70.441406 145.316406 66.597656 157.09375 64.253906 C 166.726562 62.40625 176.507812 61.425781 186.300781 61.472656 C 187.605469 61.441406 188.90625 61.554688 190.210938 61.601562 C 191.511719 61.671875 192.816406 61.703125 194.113281 61.800781 L 198.007812 62.160156 L 199.953125 62.335938 L 201.890625 62.601562 L 205.765625 63.121094 C 207.050781 63.324219 208.328125 63.578125 209.613281 63.796875 C 212.191406 64.199219 214.722656 64.828125 217.273438 65.371094 C 217.640625 65.453125 218.023438 65.539062 218.425781 65.625 C 218.820312 65.734375 219.234375 65.84375 219.660156 65.960938 C 220.515625 66.195312 221.4375 66.449219 222.417969 66.722656 C 224.390625 67.21875 226.539062 67.988281 228.90625 68.765625 C 229.496094 68.96875 230.105469 69.15625 230.710938 69.386719 C 231.316406 69.621094 231.933594 69.863281 232.5625 70.109375 C 233.816406 70.601562 235.117188 71.113281 236.457031 71.640625 C 239.070312 72.851562 241.914062 74.003906 244.726562 75.53125 C 256.210938 81.214844 268.550781 90.210938 279.027344 101.066406 C 289.40625 112.007812 297.847656 124.734375 303.019531 136.453125 C 304.421875 139.335938 305.445312 142.222656 306.542969 144.890625 C 307.011719 146.25 307.464844 147.574219 307.902344 148.847656 C 308.121094 149.484375 308.335938 150.113281 308.542969 150.726562 C 308.746094 151.34375 308.902344 151.960938 309.082031 152.558594 C 309.757812 154.957031 310.429688 157.136719 310.839844 159.128906 C 311.066406 160.121094 311.277344 161.050781 311.476562 161.917969 C 311.574219 162.347656 311.667969 162.765625 311.757812 163.167969 C 311.828125 163.570312 311.894531 163.957031 311.960938 164.328125 C 313.746094 173.960938 314.660156 183.742188 314.546875 193.535156 C 314.324219 203.964844 312.816406 214.335938 310.421875 224.5 C 307.566406 236.164062 303.214844 247.519531 297.195312 257.992188 C 291.300781 268.535156 283.671875 278.101562 274.988281 286.558594 C 266.15625 294.863281 256.265625 302.058594 245.46875 307.484375 Z M 277.136719 288.675781 L 277.144531 288.667969 C 286.011719 280.03125 293.808594 270.265625 299.847656 259.492188 C 306.011719 248.796875 310.460938 237.183594 313.347656 225.261719 L 314.601562 219.652344 C 314.601562 219.652344 314.898438 218.097656 315.335938 215.765625 C 315.84375 213.445312 316.191406 210.296875 316.652344 207.167969 C 316.917969 204.015625 317.296875 200.875 317.335938 198.503906 C 317.441406 196.132812 317.507812 194.554688 317.507812 194.554688 C 317.507812 194.554688 317.519531 194.160156 317.523438 193.46875 C 317.523438 192.777344 317.53125 191.789062 317.535156 190.605469 C 317.609375 188.230469 317.417969 185.078125 317.292969 181.917969 C 317.179688 180.34375 317.015625 178.769531 316.890625 177.292969 C 316.820312 176.554688 316.757812 175.84375 316.695312 175.167969 C 316.601562 174.496094 316.511719 173.859375 316.429688 173.269531 C 316.105469 170.921875 315.886719 169.355469 315.886719 169.355469 C 315.886719 169.355469 315.855469 169 315.753906 168.46875 C 315.660156 167.941406 315.539062 167.234375 315.414062 166.527344 C 315.167969 165.113281 314.917969 163.699219 314.917969 163.699219 C 314.855469 163.320312 314.785156 162.925781 314.714844 162.511719 C 314.625 162.101562 314.53125 161.675781 314.429688 161.230469 C 314.230469 160.34375 314.015625 159.390625 313.785156 158.378906 C 313.371094 156.335938 312.6875 154.105469 311.996094 151.648438 C 311.816406 151.039062 311.652344 150.40625 311.449219 149.773438 C 311.234375 149.144531 311.015625 148.503906 310.796875 147.851562 C 310.347656 146.542969 309.886719 145.191406 309.410156 143.792969 C 308.289062 141.066406 307.242188 138.109375 305.808594 135.160156 C 300.523438 123.15625 291.886719 110.121094 281.257812 98.925781 C 270.546875 87.816406 257.902344 78.613281 246.144531 72.804688 C 243.261719 71.242188 240.351562 70.0625 237.675781 68.828125 C 236.300781 68.289062 234.972656 67.765625 233.683594 67.261719 C 233.042969 67.011719 232.410156 66.765625 231.792969 66.523438 C 231.171875 66.292969 230.546875 66.101562 229.941406 65.894531 C 227.519531 65.097656 225.320312 64.316406 223.300781 63.8125 C 222.296875 63.535156 221.355469 63.28125 220.476562 63.039062 C 220.039062 62.921875 219.617188 62.808594 219.210938 62.699219 C 218.800781 62.609375 218.40625 62.523438 218.03125 62.445312 C 218.03125 62.445312 216.632812 62.132812 215.230469 61.824219 C 214.527344 61.671875 213.828125 61.515625 213.304688 61.398438 C 212.78125 61.273438 212.425781 61.230469 212.425781 61.230469 C 212.425781 61.230469 210.871094 60.941406 208.539062 60.511719 C 207.953125 60.40625 207.324219 60.289062 206.65625 60.164062 C 205.984375 60.074219 205.273438 59.976562 204.539062 59.878906 C 203.070312 59.683594 201.507812 59.449219 199.9375 59.269531 C 196.785156 59.007812 193.644531 58.675781 191.269531 58.644531 C 190.085938 58.597656 189.097656 58.558594 188.40625 58.53125 C 187.71875 58.503906 187.320312 58.5 187.320312 58.5 C 187.320312 58.5 185.742188 58.496094 183.371094 58.496094 C 181 58.429688 177.84375 58.671875 174.683594 58.796875 C 171.539062 59.121094 168.378906 59.328125 166.035156 59.730469 C 163.6875 60.070312 162.121094 60.292969 162.121094 60.292969 L 156.464844 61.300781 C 144.421875 63.65625 132.625 67.59375 121.667969 73.277344 C 110.640625 78.835938 100.542969 86.195312 91.519531 94.675781 L 91.511719 94.679688 L 91.449219 94.742188 L 91.382812 94.804688 L 91.378906 94.8125 C 82.511719 103.449219 74.710938 113.214844 68.671875 123.984375 C 62.511719 134.683594 58.058594 146.292969 55.175781 158.21875 L 53.917969 163.828125 C 53.917969 163.828125 53.625 165.382812 53.183594 167.714844 C 52.679688 170.035156 52.332031 173.183594 51.871094 176.3125 C 51.605469 179.464844 51.222656 182.605469 51.183594 184.976562 C 51.082031 187.34375 51.011719 188.925781 51.011719 188.925781 C 51.011719 188.925781 51 189.320312 51 190.011719 C 50.996094 190.703125 50.988281 191.6875 50.984375 192.875 C 50.910156 195.246094 51.105469 198.402344 51.230469 201.5625 C 51.339844 203.136719 51.503906 204.707031 51.632812 206.183594 C 51.699219 206.921875 51.765625 207.636719 51.828125 208.3125 C 51.921875 208.984375 52.007812 209.621094 52.089844 210.207031 C 52.417969 212.558594 52.636719 214.121094 52.636719 214.121094 C 52.636719 214.121094 52.664062 214.480469 52.765625 215.007812 C 52.859375 215.539062 52.984375 216.246094 53.105469 216.953125 C 53.355469 218.367188 53.601562 219.78125 53.601562 219.78125 C 53.667969 220.15625 53.734375 220.554688 53.804688 220.96875 C 53.894531 221.378906 53.992188 221.804688 54.089844 222.25 C 54.289062 223.136719 54.507812 224.085938 54.734375 225.101562 C 55.152344 227.140625 55.835938 229.375 56.523438 231.832031 C 56.703125 232.441406 56.867188 233.074219 57.074219 233.707031 C 57.285156 234.335938 57.503906 234.976562 57.726562 235.628906 C 58.171875 236.933594 58.636719 238.289062 59.113281 239.683594 C 60.230469 242.414062 61.28125 245.371094 62.710938 248.320312 C 68 260.320312 76.636719 273.359375 87.261719 284.554688 C 97.976562 295.660156 110.621094 304.863281 122.378906 310.675781 C 125.261719 312.234375 128.171875 313.414062 130.847656 314.652344 C 132.21875 315.191406 133.550781 315.714844 134.835938 316.214844 C 135.480469 316.46875 136.109375 316.714844 136.730469 316.953125 C 137.351562 317.1875 137.976562 317.378906 138.578125 317.585938 C 141.003906 318.382812 143.203125 319.164062 145.222656 319.667969 C 146.226562 319.941406 147.167969 320.199219 148.042969 320.4375 C 148.480469 320.558594 148.90625 320.671875 149.308594 320.78125 C 149.722656 320.867188 150.113281 320.953125 150.488281 321.035156 C 150.488281 321.035156 151.890625 321.34375 153.292969 321.65625 C 153.992188 321.808594 154.691406 321.964844 155.21875 322.078125 C 155.738281 322.203125 156.097656 322.25 156.097656 322.25 C 156.097656 322.25 157.652344 322.535156 159.984375 322.964844 C 160.566406 323.074219 161.199219 323.191406 161.863281 323.3125 C 162.539062 323.40625 163.246094 323.503906 163.980469 323.601562 C 165.453125 323.792969 167.015625 324.027344 168.585938 324.210938 C 171.734375 324.472656 174.878906 324.804688 177.25 324.835938 C 178.433594 324.882812 179.421875 324.921875 180.113281 324.949219 C 180.804688 324.976562 181.199219 324.980469 181.199219 324.980469 C 181.199219 324.980469 182.78125 324.980469 185.148438 324.984375 C 187.523438 325.050781 190.675781 324.808594 193.835938 324.679688 C 196.984375 324.359375 200.144531 324.152344 202.484375 323.75 C 204.835938 323.410156 206.398438 323.183594 206.398438 323.183594 L 212.058594 322.179688 C 224.097656 319.824219 235.894531 315.886719 246.851562 310.203125 C 257.878906 304.644531 267.980469 297.28125 277 288.804688 L 277.007812 288.800781 L 277.074219 288.738281 L 277.136719 288.675781 " fill-opacity="1" fill-rule="nonzero"/></g></g></g><g fill="#000000" fill-opacity="1"><g transform="translate(161.67491, 324.438871)"><g><path d="M 1.65625 0.421875 L 4.984375 -12.6875 L 13.578125 -10.5 L 13.296875 -9.375 L 5.984375 -11.234375 L 4.75 -6.390625 L 10.90625 -4.828125 L 10.640625 -3.765625 L 4.484375 -5.328125 L 2.9375 0.75 Z M 1.65625 0.421875 "/></g></g></g><g fill="#000000" fill-opacity="1"><g transform="translate(176.186767, 327.926773)"><g><path d="M 1.6875 0.203125 L 3.34375 -13.234375 L 9.015625 -12.53125 C 9.597656 -12.457031 10.113281 -12.269531 10.5625 -11.96875 C 11.019531 -11.664062 11.398438 -11.289062 11.703125 -10.84375 C 12.003906 -10.40625 12.222656 -9.921875 12.359375 -9.390625 C 12.503906 -8.859375 12.539062 -8.335938 12.46875 -7.828125 C 12.414062 -7.335938 12.285156 -6.875 12.078125 -6.4375 C 11.878906 -6.007812 11.628906 -5.628906 11.328125 -5.296875 C 11.023438 -4.960938 10.675781 -4.695312 10.28125 -4.5 C 9.882812 -4.300781 9.453125 -4.1875 8.984375 -4.15625 L 11.625 1.421875 L 10.140625 1.25 L 7.59375 -4.109375 L 3.625 -4.59375 L 3.015625 0.375 Z M 3.765625 -5.75 L 8.140625 -5.21875 C 8.535156 -5.164062 8.90625 -5.207031 9.25 -5.34375 C 9.59375 -5.476562 9.894531 -5.671875 10.15625 -5.921875 C 10.414062 -6.179688 10.628906 -6.488281 10.796875 -6.84375 C 10.972656 -7.195312 11.082031 -7.578125 11.125 -7.984375 C 11.175781 -8.378906 11.148438 -8.773438 11.046875 -9.171875 C 10.953125 -9.566406 10.800781 -9.914062 10.59375 -10.21875 C 10.394531 -10.53125 10.132812 -10.785156 9.8125 -10.984375 C 9.488281 -11.191406 9.144531 -11.320312 8.78125 -11.375 L 4.515625 -11.890625 Z M 3.765625 -5.75 "/></g></g></g><g fill="#000000" fill-opacity="1"><g transform="translate(192.284319, 329.663652)"><g><path d="M 5.734375 -13.59375 L 6.859375 -13.609375 L 12.640625 -0.140625 L 11.234375 -0.125 L 9.421875 -4.34375 L 3.34375 -4.28125 L 1.65625 -0.015625 L 0.234375 0 Z M 9.109375 -5.390625 L 6.296875 -12.046875 L 3.609375 -5.328125 Z M 9.109375 -5.390625 "/></g></g></g><g fill="#000000" fill-opacity="1"><g transform="translate(208.980536, 329.260434)"><g><path d="M 1.28125 -11.390625 L 3 -0.46875 L 1.6875 -0.265625 L -0.40625 -13.640625 L 0.59375 -13.796875 L 11.203125 -4.046875 L 9.453125 -15.171875 L 10.765625 -15.375 L 12.859375 -2.015625 L 11.71875 -1.828125 Z M 1.28125 -11.390625 "/></g></g></g><g fill="#000000" fill-opacity="1"><g transform="translate(227.229423, 326.062239)"><g><path d="M 6.0625 0.640625 C 6.257812 0.671875 6.515625 0.675781 6.828125 0.65625 C 7.140625 0.632812 7.453125 0.570312 7.765625 0.46875 C 8.460938 0.257812 8.742188 -0.0546875 8.609375 -0.484375 C 8.535156 -0.722656 8.398438 -0.863281 8.203125 -0.90625 C 8.015625 -0.957031 7.78125 -0.941406 7.5 -0.859375 C 7.238281 -0.785156 6.976562 -0.675781 6.71875 -0.53125 C 6.457031 -0.382812 6.253906 -0.257812 6.109375 -0.15625 L 6.46875 -1.890625 C 5.601562 -1.679688 4.757812 -1.664062 3.9375 -1.84375 C 3.113281 -2.03125 2.351562 -2.359375 1.65625 -2.828125 C 0.957031 -3.296875 0.351562 -3.867188 -0.15625 -4.546875 C -0.675781 -5.234375 -1.0625 -5.972656 -1.3125 -6.765625 C -1.550781 -7.546875 -1.65625 -8.363281 -1.625 -9.21875 C -1.59375 -10.070312 -1.40625 -10.882812 -1.0625 -11.65625 C -0.726562 -12.425781 -0.238281 -13.117188 0.40625 -13.734375 C 1.050781 -14.359375 1.863281 -14.816406 2.84375 -15.109375 C 3.988281 -15.472656 5.050781 -15.519531 6.03125 -15.25 C 7.007812 -14.976562 7.820312 -14.488281 8.46875 -13.78125 L 7.65625 -12.84375 C 7.320312 -13.207031 6.960938 -13.488281 6.578125 -13.6875 C 6.191406 -13.882812 5.796875 -14.019531 5.390625 -14.09375 C 4.992188 -14.164062 4.601562 -14.1875 4.21875 -14.15625 C 3.832031 -14.125 3.46875 -14.054688 3.125 -13.953125 C 2.34375 -13.710938 1.703125 -13.34375 1.203125 -12.84375 C 0.703125 -12.34375 0.328125 -11.769531 0.078125 -11.125 C -0.171875 -10.488281 -0.300781 -9.820312 -0.3125 -9.125 C -0.320312 -8.425781 -0.222656 -7.75 -0.015625 -7.09375 C 0.203125 -6.375 0.535156 -5.726562 0.984375 -5.15625 C 1.441406 -4.582031 1.960938 -4.109375 2.546875 -3.734375 C 3.140625 -3.359375 3.773438 -3.113281 4.453125 -3 C 5.128906 -2.894531 5.816406 -2.945312 6.515625 -3.15625 C 6.867188 -3.269531 7.222656 -3.429688 7.578125 -3.640625 C 7.941406 -3.847656 8.269531 -4.101562 8.5625 -4.40625 C 8.851562 -4.71875 9.109375 -5.070312 9.328125 -5.46875 C 9.546875 -5.863281 9.691406 -6.304688 9.765625 -6.796875 L 10.984375 -6.5625 C 10.921875 -6.050781 10.773438 -5.566406 10.546875 -5.109375 C 10.316406 -4.648438 10.023438 -4.226562 9.671875 -3.84375 C 9.328125 -3.46875 8.941406 -3.128906 8.515625 -2.828125 C 8.085938 -2.535156 7.640625 -2.296875 7.171875 -2.109375 L 6.90625 -1.125 C 7.007812 -1.207031 7.125 -1.269531 7.25 -1.3125 C 7.375 -1.363281 7.476562 -1.40625 7.5625 -1.4375 C 7.988281 -1.5625 8.351562 -1.566406 8.65625 -1.453125 C 8.96875 -1.347656 9.179688 -1.117188 9.296875 -0.765625 C 9.421875 -0.347656 9.359375 0.015625 9.109375 0.328125 C 8.867188 0.648438 8.445312 0.90625 7.84375 1.09375 C 7.476562 1.195312 7.132812 1.257812 6.8125 1.28125 C 6.488281 1.3125 6.195312 1.316406 5.9375 1.296875 Z M 6.0625 0.640625 "/></g></g></g><g fill="#000000" fill-opacity="1"><g transform="translate(243.236441, 320.880143)"><g><path d="M 6.515625 -2.984375 C 5.660156 -2.578125 4.796875 -2.378906 3.921875 -2.390625 C 3.046875 -2.398438 2.21875 -2.578125 1.4375 -2.921875 C 0.65625 -3.273438 -0.046875 -3.753906 -0.671875 -4.359375 C -1.304688 -4.972656 -1.804688 -5.671875 -2.171875 -6.453125 C -2.566406 -7.273438 -2.789062 -8.125 -2.84375 -9 C -2.90625 -9.882812 -2.8125 -10.734375 -2.5625 -11.546875 C -2.3125 -12.367188 -1.914062 -13.113281 -1.375 -13.78125 C -0.84375 -14.457031 -0.164062 -14.988281 0.65625 -15.375 C 1.5 -15.78125 2.359375 -15.96875 3.234375 -15.9375 C 4.117188 -15.914062 4.945312 -15.726562 5.71875 -15.375 C 6.5 -15.019531 7.203125 -14.539062 7.828125 -13.9375 C 8.453125 -13.34375 8.945312 -12.65625 9.3125 -11.875 C 9.695312 -11.0625 9.921875 -10.210938 9.984375 -9.328125 C 10.046875 -8.441406 9.953125 -7.59375 9.703125 -6.78125 C 9.460938 -5.976562 9.070312 -5.238281 8.53125 -4.5625 C 8 -3.894531 7.328125 -3.367188 6.515625 -2.984375 Z M -0.953125 -7.03125 C -0.640625 -6.363281 -0.234375 -5.773438 0.265625 -5.265625 C 0.773438 -4.753906 1.34375 -4.351562 1.96875 -4.0625 C 2.59375 -3.78125 3.25 -3.628906 3.9375 -3.609375 C 4.632812 -3.585938 5.320312 -3.738281 6 -4.0625 C 6.6875 -4.382812 7.238281 -4.828125 7.65625 -5.390625 C 8.070312 -5.953125 8.359375 -6.566406 8.515625 -7.234375 C 8.679688 -7.910156 8.722656 -8.601562 8.640625 -9.3125 C 8.566406 -10.019531 8.382812 -10.6875 8.09375 -11.3125 C 7.769531 -11.988281 7.351562 -12.578125 6.84375 -13.078125 C 6.34375 -13.585938 5.773438 -13.976562 5.140625 -14.25 C 4.515625 -14.53125 3.859375 -14.679688 3.171875 -14.703125 C 2.484375 -14.734375 1.8125 -14.59375 1.15625 -14.28125 C 0.457031 -13.945312 -0.0976562 -13.5 -0.515625 -12.9375 C -0.929688 -12.382812 -1.222656 -11.773438 -1.390625 -11.109375 C -1.566406 -10.441406 -1.613281 -9.753906 -1.53125 -9.046875 C -1.445312 -8.335938 -1.253906 -7.664062 -0.953125 -7.03125 Z M -0.953125 -7.03125 "/></g></g></g><g fill="#000000" fill-opacity="1"><g transform="translate(259.187759, 312.835255)"><g><path d="M 1.453125 -0.890625 L -5.609375 -12.4375 L -4.484375 -13.125 L 2.578125 -1.578125 Z M 1.453125 -0.890625 "/></g></g></g><g fill="#000000" fill-opacity="1"><g transform="translate(266.196309, 308.545178)"><g><path d="M 1.078125 -14.5625 C 0.515625 -14.675781 -0.0976562 -14.648438 -0.765625 -14.484375 C -1.429688 -14.316406 -2.09375 -13.988281 -2.75 -13.5 C -3.695312 -12.78125 -4.253906 -12.078125 -4.421875 -11.390625 C -4.585938 -10.703125 -4.441406 -10.050781 -3.984375 -9.4375 C -3.734375 -9.101562 -3.46875 -8.875 -3.1875 -8.75 C -2.914062 -8.632812 -2.601562 -8.59375 -2.25 -8.625 C -1.894531 -8.65625 -1.484375 -8.753906 -1.015625 -8.921875 C -0.546875 -9.097656 -0.015625 -9.332031 0.578125 -9.625 C 1.242188 -9.925781 1.867188 -10.171875 2.453125 -10.359375 C 3.035156 -10.554688 3.570312 -10.664062 4.0625 -10.6875 C 4.550781 -10.707031 5.003906 -10.617188 5.421875 -10.421875 C 5.847656 -10.222656 6.242188 -9.882812 6.609375 -9.40625 C 6.984375 -8.90625 7.210938 -8.394531 7.296875 -7.875 C 7.378906 -7.363281 7.335938 -6.859375 7.171875 -6.359375 C 7.003906 -5.859375 6.722656 -5.367188 6.328125 -4.890625 C 5.941406 -4.410156 5.460938 -3.957031 4.890625 -3.53125 C 3.210938 -2.269531 1.375 -1.703125 -0.625 -1.828125 L -0.734375 -3.109375 C -0.390625 -3.046875 -0.015625 -3.023438 0.390625 -3.046875 C 0.796875 -3.078125 1.210938 -3.144531 1.640625 -3.25 C 2.078125 -3.363281 2.507812 -3.519531 2.9375 -3.71875 C 3.375 -3.925781 3.800781 -4.1875 4.21875 -4.5 C 5.082031 -5.144531 5.640625 -5.804688 5.890625 -6.484375 C 6.140625 -7.160156 6.03125 -7.8125 5.5625 -8.4375 C 5.3125 -8.78125 5.03125 -9.015625 4.71875 -9.140625 C 4.40625 -9.265625 4.046875 -9.304688 3.640625 -9.265625 C 3.242188 -9.222656 2.796875 -9.109375 2.296875 -8.921875 C 1.796875 -8.734375 1.234375 -8.503906 0.609375 -8.234375 C -0.0664062 -7.929688 -0.664062 -7.691406 -1.1875 -7.515625 C -1.71875 -7.335938 -2.210938 -7.242188 -2.671875 -7.234375 C -3.128906 -7.234375 -3.539062 -7.328125 -3.90625 -7.515625 C -4.28125 -7.710938 -4.628906 -8.023438 -4.953125 -8.453125 C -5.328125 -8.953125 -5.566406 -9.46875 -5.671875 -10 C -5.773438 -10.53125 -5.753906 -11.050781 -5.609375 -11.5625 C -5.460938 -12.082031 -5.203125 -12.585938 -4.828125 -13.078125 C -4.460938 -13.566406 -4 -14.023438 -3.4375 -14.453125 C -2.707031 -14.992188 -1.976562 -15.367188 -1.25 -15.578125 C -0.53125 -15.785156 0.207031 -15.859375 0.96875 -15.796875 Z M 1.078125 -14.5625 "/></g></g></g><g fill="#000000" fill-opacity="1"><g transform="translate(278.03343, 299.250882)"><g/></g></g><g fill="#000000" fill-opacity="1"><g transform="translate(284.245498, 293.612095)"><g><path d="M 7.265625 -8.109375 L 5.015625 -8.046875 C 5.078125 -7.253906 4.992188 -6.492188 4.765625 -5.765625 C 4.546875 -5.035156 4.164062 -4.367188 3.625 -3.765625 C 3.226562 -3.316406 2.785156 -2.957031 2.296875 -2.6875 C 1.816406 -2.414062 1.320312 -2.238281 0.8125 -2.15625 C 0.3125 -2.082031 -0.175781 -2.109375 -0.65625 -2.234375 C -1.144531 -2.367188 -1.59375 -2.617188 -2 -2.984375 C -2.34375 -3.285156 -2.601562 -3.625 -2.78125 -4 C -2.957031 -4.375 -3.078125 -4.769531 -3.140625 -5.1875 C -3.210938 -5.601562 -3.238281 -6.03125 -3.21875 -6.46875 C -3.195312 -6.90625 -3.15625 -7.351562 -3.09375 -7.8125 C -3.59375 -7.789062 -4.03125 -7.789062 -4.40625 -7.8125 C -4.78125 -7.84375 -5.109375 -7.882812 -5.390625 -7.9375 C -5.679688 -8 -5.929688 -8.082031 -6.140625 -8.1875 C -6.347656 -8.289062 -6.546875 -8.425781 -6.734375 -8.59375 C -7.035156 -8.863281 -7.265625 -9.179688 -7.421875 -9.546875 C -7.578125 -9.921875 -7.648438 -10.3125 -7.640625 -10.71875 C -7.628906 -11.125 -7.539062 -11.53125 -7.375 -11.9375 C -7.21875 -12.34375 -6.984375 -12.722656 -6.671875 -13.078125 C -6.367188 -13.410156 -6.039062 -13.675781 -5.6875 -13.875 C -5.34375 -14.082031 -4.988281 -14.210938 -4.625 -14.265625 C -4.269531 -14.328125 -3.910156 -14.3125 -3.546875 -14.21875 C -3.179688 -14.125 -2.851562 -13.941406 -2.5625 -13.671875 C -2.269531 -13.421875 -2.054688 -13.125 -1.921875 -12.78125 C -1.785156 -12.4375 -1.695312 -12.066406 -1.65625 -11.671875 C -1.625 -11.285156 -1.625 -10.867188 -1.65625 -10.421875 C -1.695312 -9.984375 -1.75 -9.523438 -1.8125 -9.046875 L 3.640625 -9.21875 C 3.460938 -9.738281 3.210938 -10.238281 2.890625 -10.71875 C 2.566406 -11.195312 2.175781 -11.644531 1.71875 -12.0625 L 2.453125 -12.890625 C 3.023438 -12.359375 3.503906 -11.785156 3.890625 -11.171875 C 4.285156 -10.554688 4.578125 -9.914062 4.765625 -9.25 L 8.40625 -9.375 Z M 2.9375 -4.5625 C 3.363281 -5.050781 3.65625 -5.585938 3.8125 -6.171875 C 3.976562 -6.753906 4.019531 -7.367188 3.9375 -8.015625 L -2.015625 -7.84375 C -2.109375 -7.03125 -2.113281 -6.285156 -2.03125 -5.609375 C -1.945312 -4.941406 -1.648438 -4.378906 -1.140625 -3.921875 C -0.828125 -3.640625 -0.488281 -3.457031 -0.125 -3.375 C 0.238281 -3.289062 0.601562 -3.289062 0.96875 -3.375 C 1.34375 -3.457031 1.695312 -3.601562 2.03125 -3.8125 C 2.375 -4.019531 2.675781 -4.269531 2.9375 -4.5625 Z M -5.9375 -9.5 C -5.832031 -9.40625 -5.707031 -9.320312 -5.5625 -9.25 C -5.414062 -9.175781 -5.226562 -9.125 -5 -9.09375 C -4.769531 -9.0625 -4.484375 -9.035156 -4.140625 -9.015625 C -3.804688 -8.992188 -3.390625 -8.988281 -2.890625 -9 C -2.765625 -9.875 -2.707031 -10.625 -2.71875 -11.25 C -2.726562 -11.882812 -2.9375 -12.382812 -3.34375 -12.75 C -3.71875 -13.082031 -4.144531 -13.21875 -4.625 -13.15625 C -5.101562 -13.09375 -5.535156 -12.847656 -5.921875 -12.421875 C -6.128906 -12.191406 -6.28125 -11.9375 -6.375 -11.65625 C -6.476562 -11.382812 -6.53125 -11.117188 -6.53125 -10.859375 C -6.53125 -10.609375 -6.476562 -10.363281 -6.375 -10.125 C -6.28125 -9.882812 -6.132812 -9.675781 -5.9375 -9.5 Z M -5.9375 -9.5 "/></g></g></g><g fill="#000000" fill-opacity="1"><g transform="translate(294.794795, 281.285198)"><g/></g></g><g fill="#000000" fill-opacity="1"><g transform="translate(299.716098, 274.5319)"><g><path d="M -4.890625 -16.015625 L -7.34375 -11.875 L 3.296875 -5.578125 L 2.625 -4.421875 L -8.015625 -10.71875 L -10.46875 -6.578125 L -11.46875 -7.171875 L -5.890625 -16.609375 Z M -4.890625 -16.015625 "/></g></g></g><g fill="#000000" fill-opacity="1"><g transform="translate(307.407445, 261.204693)"><g><path d="M -7.65625 -16.671875 L 4.8125 -11.40625 L 4.296875 -10.1875 L -1.53125 -12.640625 L -4.65625 -5.25 L 1.171875 -2.796875 L 0.65625 -1.5625 L -11.8125 -6.828125 L -11.296875 -8.0625 L -5.75 -5.71875 L -2.625 -13.109375 L -8.171875 -15.453125 Z M -7.65625 -16.671875 "/></g></g></g><g fill="#000000" fill-opacity="1"><g transform="translate(314.1149, 244.606892)"><g><path d="M 1.875 -6.921875 C 1.644531 -5.992188 1.242188 -5.195312 0.671875 -4.53125 C 0.0976562 -3.875 -0.566406 -3.359375 -1.328125 -2.984375 C -2.097656 -2.609375 -2.914062 -2.367188 -3.78125 -2.265625 C -4.65625 -2.171875 -5.507812 -2.234375 -6.34375 -2.453125 C -7.226562 -2.679688 -8.03125 -3.050781 -8.75 -3.5625 C -9.46875 -4.082031 -10.0625 -4.703125 -10.53125 -5.421875 C -11 -6.140625 -11.316406 -6.921875 -11.484375 -7.765625 C -11.648438 -8.609375 -11.625 -9.46875 -11.40625 -10.34375 C -11.164062 -11.257812 -10.753906 -12.039062 -10.171875 -12.6875 C -9.597656 -13.34375 -8.925781 -13.859375 -8.15625 -14.234375 C -7.394531 -14.609375 -6.578125 -14.84375 -5.703125 -14.9375 C -4.835938 -15.03125 -3.988281 -14.972656 -3.15625 -14.765625 C -2.28125 -14.535156 -1.484375 -14.160156 -0.765625 -13.640625 C -0.0546875 -13.128906 0.53125 -12.515625 1 -11.796875 C 1.46875 -11.085938 1.785156 -10.3125 1.953125 -9.46875 C 2.128906 -8.632812 2.101562 -7.785156 1.875 -6.921875 Z M -6.015625 -3.765625 C -5.304688 -3.578125 -4.59375 -3.515625 -3.875 -3.578125 C -3.15625 -3.640625 -2.484375 -3.820312 -1.859375 -4.125 C -1.242188 -4.425781 -0.707031 -4.832031 -0.25 -5.34375 C 0.195312 -5.863281 0.515625 -6.488281 0.703125 -7.21875 C 0.890625 -7.945312 0.898438 -8.648438 0.734375 -9.328125 C 0.578125 -10.003906 0.296875 -10.617188 -0.109375 -11.171875 C -0.523438 -11.734375 -1.023438 -12.207031 -1.609375 -12.59375 C -2.203125 -12.988281 -2.835938 -13.273438 -3.515625 -13.453125 C -4.234375 -13.640625 -4.953125 -13.695312 -5.671875 -13.625 C -6.390625 -13.5625 -7.054688 -13.378906 -7.671875 -13.078125 C -8.285156 -12.773438 -8.816406 -12.363281 -9.265625 -11.84375 C -9.722656 -11.332031 -10.046875 -10.726562 -10.234375 -10.03125 C -10.421875 -9.28125 -10.4375 -8.566406 -10.28125 -7.890625 C -10.125 -7.210938 -9.84375 -6.59375 -9.4375 -6.03125 C -9.03125 -5.476562 -8.523438 -5.003906 -7.921875 -4.609375 C -7.328125 -4.222656 -6.691406 -3.941406 -6.015625 -3.765625 Z M -6.015625 -3.765625 "/></g></g></g><g fill="#000000" fill-opacity="1"><g transform="translate(318.455233, 226.89562)"><g><path d="M 1.28125 -13.625 L -9.78125 -14.65625 L -1.6875 -8.953125 L -1.75 -8.171875 L -10.78125 -4.046875 L 0.28125 -3.015625 L 0.15625 -1.703125 L -13.3125 -2.96875 L -13.1875 -4.3125 L -3.46875 -8.71875 L -12.1875 -14.875 L -12.0625 -16.21875 L 1.40625 -14.953125 Z M 1.28125 -13.625 "/></g></g></g><g fill="#000000" fill-opacity="1"><g transform="translate(319.939781, 206.370712)"><g><path d="M -13.859375 -5.078125 L -13.921875 -6.203125 L -0.734375 -12.625 L -0.65625 -11.21875 L -4.796875 -9.203125 L -4.4375 -3.140625 L -0.09375 -1.65625 L -0.015625 -0.234375 Z M -5.796875 -8.84375 L -12.328125 -5.71875 L -5.484375 -3.359375 Z M -5.796875 -8.84375 "/></g></g></g><g fill="#000000" fill-opacity="1"><g transform="translate(318.677638, 189.815399)"><g><path d="M -12.59375 -7.375 C -12.945312 -6.914062 -13.195312 -6.347656 -13.34375 -5.671875 C -13.5 -4.992188 -13.5 -4.253906 -13.34375 -3.453125 C -13.125 -2.285156 -12.738281 -1.476562 -12.1875 -1.03125 C -11.632812 -0.582031 -10.984375 -0.429688 -10.234375 -0.578125 C -9.828125 -0.648438 -9.507812 -0.78125 -9.28125 -0.96875 C -9.050781 -1.164062 -8.867188 -1.429688 -8.734375 -1.765625 C -8.609375 -2.097656 -8.519531 -2.507812 -8.46875 -3 C -8.414062 -3.5 -8.390625 -4.082031 -8.390625 -4.75 C -8.367188 -5.488281 -8.316406 -6.160156 -8.234375 -6.765625 C -8.160156 -7.378906 -8.023438 -7.910156 -7.828125 -8.359375 C -7.628906 -8.804688 -7.34375 -9.175781 -6.96875 -9.46875 C -6.601562 -9.757812 -6.125 -9.957031 -5.53125 -10.0625 C -4.914062 -10.1875 -4.363281 -10.171875 -3.875 -10.015625 C -3.382812 -9.859375 -2.945312 -9.597656 -2.5625 -9.234375 C -2.1875 -8.867188 -1.867188 -8.40625 -1.609375 -7.84375 C -1.347656 -7.28125 -1.15625 -6.648438 -1.03125 -5.953125 C -0.632812 -3.890625 -0.929688 -1.988281 -1.921875 -0.25 L -3.125 -0.71875 C -2.914062 -0.988281 -2.734375 -1.3125 -2.578125 -1.6875 C -2.421875 -2.0625 -2.296875 -2.46875 -2.203125 -2.90625 C -2.109375 -3.351562 -2.054688 -3.8125 -2.046875 -4.28125 C -2.046875 -4.757812 -2.09375 -5.253906 -2.1875 -5.765625 C -2.394531 -6.828125 -2.742188 -7.617188 -3.234375 -8.140625 C -3.722656 -8.660156 -4.351562 -8.847656 -5.125 -8.703125 C -5.539062 -8.617188 -5.875 -8.46875 -6.125 -8.25 C -6.375 -8.03125 -6.570312 -7.734375 -6.71875 -7.359375 C -6.863281 -6.984375 -6.957031 -6.53125 -7 -6 C -7.050781 -5.46875 -7.09375 -4.859375 -7.125 -4.171875 C -7.15625 -3.429688 -7.207031 -2.785156 -7.28125 -2.234375 C -7.351562 -1.679688 -7.484375 -1.195312 -7.671875 -0.78125 C -7.867188 -0.363281 -8.132812 -0.0351562 -8.46875 0.203125 C -8.800781 0.453125 -9.234375 0.628906 -9.765625 0.734375 C -10.378906 0.847656 -10.945312 0.835938 -11.46875 0.703125 C -12 0.566406 -12.460938 0.316406 -12.859375 -0.046875 C -13.253906 -0.410156 -13.585938 -0.859375 -13.859375 -1.390625 C -14.140625 -1.929688 -14.347656 -2.550781 -14.484375 -3.25 C -14.648438 -4.144531 -14.664062 -4.960938 -14.53125 -5.703125 C -14.40625 -6.441406 -14.148438 -7.140625 -13.765625 -7.796875 Z M -12.59375 -7.375 "/></g></g></g><g fill="#000000" fill-opacity="1"><g transform="translate(64.933766, 214.500411)"><g><path d="M 32.035156 -33.109375 C 32.9375 -41.71875 27.554688 -46.757812 19.976562 -46.757812 C 15.542969 -46.757812 10.289062 -45.078125 7.492188 -41.503906 C 5.125 -38.535156 4.605469 -33.710938 6.671875 -30.570312 C 8.523438 -27.640625 11.96875 -26.089844 15.027344 -24.628906 C 18.558594 -22.949219 22.214844 -21.355469 25.101562 -18.644531 C 28.375 -15.542969 30.441406 -10.765625 28.375 -6.457031 C 26.609375 -2.839844 22.949219 -1.335938 19.332031 -1.335938 C 18.339844 -1.335938 17.394531 -1.421875 16.445312 -1.636719 C 11.28125 -2.710938 7.75 -6.457031 8.007812 -11.667969 C 8.050781 -12.832031 8.222656 -14.035156 8.523438 -15.199219 C 8.652344 -15.671875 8.136719 -15.84375 7.492188 -15.84375 C 6.457031 -15.84375 4.953125 -15.371094 4.777344 -14.640625 C 2.753906 -6.070312 7.019531 -0.773438 15.15625 0.386719 C 16.230469 0.515625 17.351562 0.601562 18.425781 0.601562 C 20.234375 0.601562 22.042969 0.386719 23.722656 -0.171875 C 28.847656 -1.851562 33.496094 -6.113281 32.980469 -11.882812 C 32.59375 -16.144531 29.492188 -19.761719 26.089844 -22.042969 C 22.820312 -24.238281 19.117188 -25.703125 15.628906 -27.511719 C 12.875 -28.976562 9.945312 -30.914062 9.300781 -34.1875 C 8.09375 -40.429688 12.746094 -44.820312 18.644531 -44.820312 C 23.679688 -44.820312 27.640625 -41.03125 28.289062 -36.339844 C 28.417969 -35.046875 28.417969 -33.796875 28.289062 -32.59375 C 28.203125 -32.078125 28.71875 -31.859375 29.40625 -31.859375 C 30.484375 -31.859375 31.945312 -32.421875 32.035156 -33.109375 Z M 32.035156 -33.109375 "/></g></g></g><g fill="#000000" fill-opacity="1"><g transform="translate(96.368807, 214.500411)"><g><path d="M 38.234375 -8.050781 C 37.371094 -8.050781 36.339844 -7.707031 35.777344 -7.019531 C 33.195312 -3.617188 29.40625 -1.765625 25.1875 -1.765625 C 20.796875 -1.765625 16.621094 -3.488281 13.691406 -6.847656 C 9.171875 -12.011719 8.050781 -19.546875 8.523438 -26.132812 C 9.128906 -35.605469 14.640625 -44.519531 24.238281 -44.519531 C 27.8125 -44.519531 31.386719 -42.925781 34.230469 -40.859375 C 34.402344 -40.730469 34.703125 -40.6875 35.003906 -40.6875 C 36.382812 -40.6875 38.492188 -41.808594 37.242188 -42.710938 C 33.667969 -45.335938 29.363281 -46.714844 25.015625 -46.714844 C 14.726562 -46.714844 7.0625 -39.222656 5.210938 -29.191406 C 3.746094 -21.398438 4.820312 -12.660156 9.171875 -6.671875 C 12.441406 -2.152344 17.695312 0.472656 23.25 0.515625 C 29.320312 0.558594 35.519531 -1.980469 39.265625 -6.847656 C 39.828125 -7.578125 38.792969 -8.050781 38.234375 -8.050781 Z M 38.234375 -8.050781 "/></g></g></g><g fill="#000000" fill-opacity="1"><g transform="translate(133.831222, 214.500411)"><g><path d="M 54.59375 3.703125 C 54.335938 3.53125 54.035156 3.445312 53.734375 3.445312 C 53.128906 3.445312 52.441406 3.746094 51.96875 3.960938 C 49.558594 5.296875 47.1875 5.898438 44.863281 5.898438 C 33.324219 5.898438 23.636719 -9.042969 20.320312 -18.425781 C 21.398438 -18.253906 22.433594 -18.210938 23.421875 -18.210938 C 31.902344 -18.210938 38.75 -23.378906 39.09375 -31.988281 C 39.394531 -41.71875 32.765625 -46.757812 23.808594 -47.273438 C 23.121094 -47.316406 22.476562 -47.316406 21.785156 -47.316406 C 15.585938 -47.316406 9.386719 -45.640625 3.617188 -43.441406 C 2.972656 -43.183594 2.195312 -42.453125 2.710938 -41.71875 C 2.929688 -41.417969 3.359375 -41.289062 3.789062 -41.289062 C 4.304688 -41.289062 4.820312 -41.460938 5.167969 -41.589844 C 10.03125 -43.441406 15.242188 -44.863281 20.496094 -44.949219 C 27.941406 -44.820312 34.445312 -41.851562 35.21875 -34.058594 C 35.910156 -27.855469 33.066406 -21.65625 26.738281 -20.796875 C 26.132812 -20.710938 25.488281 -20.667969 24.886719 -20.667969 C 23.164062 -20.667969 21.441406 -20.96875 19.761719 -21.355469 C 19.632812 -21.398438 19.460938 -21.398438 19.246094 -21.398438 C 18.167969 -21.398438 16.402344 -20.882812 16.75 -19.761719 C 20.496094 -8.394531 29.40625 7.535156 42.925781 8.308594 C 43.269531 8.351562 43.65625 8.351562 44.003906 8.351562 C 47.621094 8.351562 51.105469 7.191406 54.335938 5.382812 C 54.980469 5.039062 55.328125 4.175781 54.59375 3.703125 Z M 11.539062 -39.695312 C 11.496094 -39.914062 11.152344 -40.042969 10.722656 -40.042969 C 9.558594 -40.042969 7.664062 -39.394531 7.835938 -38.707031 C 9.472656 -29.234375 9.730469 -19.417969 8.785156 -10.117188 C 8.4375 -6.714844 7.878906 -3.316406 6.933594 0 C 6.804688 0.300781 7.234375 0.429688 7.835938 0.429688 C 8.871094 0.429688 10.417969 0.0429688 10.589844 -0.601562 C 13.820312 -11.453125 13.304688 -24.285156 12.183594 -35.046875 C 12.011719 -36.597656 11.839844 -38.148438 11.539062 -39.695312 Z M 11.539062 -39.695312 "/></g></g></g><g fill="#000000" fill-opacity="1"><g transform="translate(170.088162, 214.500411)"><g><path d="M 37.199219 -30.050781 C 37.113281 -35.132812 37.113281 -40.257812 36.984375 -45.292969 C 36.941406 -46.15625 36.039062 -46.371094 35.304688 -46.371094 C 34.617188 -46.285156 33.195312 -45.8125 33.195312 -44.949219 C 33.453125 -36.425781 33.453125 -27.898438 33.453125 -19.375 C 33.453125 -9.816406 32.25 -1.464844 21.871094 -1.464844 C 10.074219 -1.636719 9.257812 -12.441406 9.257812 -19.976562 C 9.257812 -24.671875 9.558594 -29.320312 9.558594 -33.925781 C 9.558594 -37.890625 9.34375 -41.851562 8.957031 -45.855469 C 8.914062 -46.414062 8.394531 -46.628906 7.707031 -46.628906 C 6.542969 -46.628906 5.210938 -45.898438 5.210938 -44.863281 C 5.597656 -41.160156 5.769531 -37.5 5.769531 -33.882812 C 5.769531 -29.105469 5.511719 -24.371094 5.511719 -19.675781 C 5.511719 -10.9375 6.757812 1.078125 20.96875 1.078125 C 26.566406 1.078125 31.601562 -0.902344 34.445312 -5.253906 C 37.328125 -9.644531 37.242188 -15.285156 37.285156 -20.320312 C 37.285156 -23.59375 37.199219 -26.824219 37.199219 -30.050781 Z M 37.199219 -30.050781 "/></g></g></g><g fill="#000000" fill-opacity="1"><g transform="translate(207.378367, 214.500411)"><g><path d="M 55.109375 -0.0859375 C 54.980469 -0.558594 54.464844 -0.6875 53.992188 -0.6875 C 53.648438 -0.6875 53.34375 -0.644531 53.085938 -0.601562 C 53 -0.601562 52.957031 -0.601562 52.871094 -0.601562 C 50.160156 -0.601562 50.203125 -6.113281 50.03125 -8.609375 C 49.6875 -14.8125 50.332031 -21.097656 50.675781 -27.296875 C 50.890625 -32.164062 52.65625 -45.8125 46.070312 -47.488281 C 45.464844 -47.664062 44.820312 -47.707031 44.21875 -47.707031 C 41.632812 -47.707031 38.921875 -46.542969 37.242188 -44.863281 C 33.453125 -41.160156 32.121094 -32.464844 31.515625 -25.746094 C 30.871094 -32.636719 29.320312 -40.429688 25.746094 -43.875 C 23.59375 -45.984375 20.925781 -46.929688 18.039062 -46.929688 C 12.3125 -46.929688 7.449219 -43.527344 5.382812 -38.148438 C 3.445312 -33.109375 4.519531 -27.425781 7.40625 -23.035156 C 7.578125 -22.734375 8.007812 -22.5625 8.480469 -22.5625 C 9.773438 -22.5625 11.496094 -23.507812 10.851562 -24.542969 C 8.523438 -28.070312 7.578125 -32.550781 8.566406 -36.726562 C 9.558594 -40.730469 12.398438 -44.691406 16.835938 -44.691406 C 18.902344 -44.691406 20.839844 -43.832031 22.300781 -42.324219 C 28.503906 -36.382812 29.191406 -22.734375 29.0625 -15.113281 C 29.0625 -14.421875 29.621094 -14.121094 30.3125 -14.121094 C 31.34375 -14.121094 32.679688 -14.769531 32.808594 -15.542969 C 33.796875 -20.96875 34.574219 -26.523438 35.648438 -31.988281 C 36.382812 -35.648438 37.113281 -39.695312 39.265625 -42.882812 C 40.34375 -44.648438 41.71875 -45.335938 43.269531 -45.335938 C 43.484375 -45.335938 43.746094 -45.335938 44.003906 -45.292969 C 48.910156 -44.476562 46.972656 -29.363281 46.84375 -26.046875 C 46.5 -19.890625 45.941406 -13.691406 46.285156 -7.535156 C 46.457031 -4.046875 46.972656 1.464844 51.539062 1.679688 C 52.183594 1.679688 52.871094 1.550781 53.519531 1.421875 C 54.121094 1.335938 55.28125 0.730469 55.109375 -0.0859375 Z M 18.125 -39.828125 C 18.082031 -40.042969 17.78125 -40.128906 17.351562 -40.128906 C 16.1875 -40.128906 14.292969 -39.523438 14.378906 -38.835938 C 14.769531 -34.917969 14.8125 -30.914062 14.8125 -26.996094 C 14.726562 -16.921875 13.820312 -5.253906 10.117188 4.21875 C 9.988281 4.5625 10.460938 4.648438 10.9375 4.648438 C 11.238281 4.648438 11.582031 4.605469 11.667969 4.605469 C 12.226562 4.519531 13.605469 4.21875 13.820312 3.574219 C 16.359375 -2.882812 17.480469 -9.902344 18.082031 -16.75 C 18.601562 -22.734375 18.730469 -28.761719 18.472656 -34.703125 C 18.382812 -36.425781 18.339844 -38.148438 18.125 -39.828125 Z M 18.125 -39.828125 "/></g></g></g><g fill="#000000" fill-opacity="1"><g transform="translate(259.47869, 214.500411)"><g><path d="M 42.109375 -46.84375 C 37.242188 -46.757812 34.359375 -43.269531 32.679688 -39.222656 C 30.484375 -34.101562 29.492188 -28.417969 28.460938 -22.949219 C 27.082031 -16.058594 25.789062 -9.085938 23.765625 -2.324219 C 22.042969 -2.496094 20.496094 -3.359375 19.332031 -4.304688 C 11.882812 -9.644531 8.609375 -21.742188 8.136719 -29.964844 C 7.878906 -34.832031 8.308594 -39.652344 9.386719 -44.347656 C 9.515625 -44.949219 8.957031 -45.207031 8.222656 -45.207031 C 7.191406 -45.207031 5.8125 -44.691406 5.640625 -43.917969 C 3.746094 -35.605469 3.789062 -26.867188 6.15625 -18.730469 C 8.4375 -10.808594 14.121094 -0.214844 23.078125 -0.0429688 C 21.398438 5.039062 19.417969 10.117188 15.886719 14.121094 C 12.011719 18.425781 7.921875 21.011719 2.066406 21.011719 C 1.765625 21.054688 1.464844 21.054688 1.164062 21.054688 C 0.558594 21.054688 -0.0429688 21.011719 -0.644531 20.96875 C -1.464844 20.96875 -2.710938 21.226562 -3.144531 22.042969 C -3.574219 22.820312 -2.753906 23.207031 -2.066406 23.25 C -1.378906 23.292969 -0.730469 23.335938 -0.0429688 23.335938 C 6.027344 23.335938 11.925781 21.355469 16.535156 17.222656 C 25.660156 9.171875 29.0625 -7.148438 31.257812 -18.644531 C 32.464844 -24.628906 33.453125 -30.65625 35.21875 -36.425781 C 35.863281 -38.320312 38.0625 -44.519531 40.300781 -44.519531 C 41.203125 -44.519531 42.582031 -44.691406 43.097656 -45.59375 C 43.527344 -46.371094 42.753906 -46.84375 42.109375 -46.84375 Z M 42.109375 -46.84375 "/></g></g></g><g clip-path="url(#8a62f89621)"><path fill="#000000" d="M 261.375 233.585938 C 257.648438 233.585938 254.625 236.609375 254.625 240.335938 C 254.625 244.066406 257.648438 247.085938 261.375 247.085938 C 265.101562 247.085938 268.125 244.066406 268.125 240.335938 C 268.125 236.609375 265.101562 233.585938 261.375 233.585938 " fill-opacity="1" fill-rule="nonzero"/></g></svg>